<?xml version="1.0" standalone="no"?><!DOCTYPE svg PUBLIC "-//W3C//DTD SVG 1.1//EN" "http://www.w3.org/Graphics/SVG/1.1/DTD/svg11.dtd"><svg t="1725099535280" class="icon" viewBox="0 0 1025 1024" version="1.1" xmlns="http://www.w3.org/2000/svg" p-id="1511" xmlns:xlink="http://www.w3.org/1999/xlink" width="200.1953125" height="200"><path d="M797.03879 1023.975H656.93079a36.165 36.165 0 0 1-36.72-36.78V677.951a28.47 28.47 0 0 0-28.359-28.47l-166.05-0.234a28.47 28.47 0 0 0-28.558 28.47v308.046c0 20.789-21.06 38.224-41.824 38.224H217.32179c-60.69 0-110.208-49.58-110.208-110.356V590.58h-20.8A85.942 85.942 0 0 1 0.00079 504.27c0-22.392 7.99-43.156 23.957-59.185L396.13479 50.048c60.69-63.969 161.316-67.162 226.802-6.399a12.441 12.441 0 0 0 6.387 6.4l372.15 395.01c33.539 33.588 31.948 87.964-1.59 121.54-16.03 16.028-38.335 23.994-60.69 23.994h-31.947v323.052c0 60.775-49.506 110.355-110.208 110.355z m-121.502-73.562" p-id="1512" fill="#FA8B19"></path></svg>