<svg data-v-97fc22ee="" data-noselect="" viewBox="0 0 800 600" width="800" height="600" preserveAspectRatio="none" version="1.1" xmlns="http://www.w3.org/2000/svg" xmlns:xlink="http://www.w3.org/1999/xlink" class="svg-canvas" style=""><defs data-v-97fc22ee=""></defs> <g data-v-97fc22ee="" mask=""><g data-v-97fc22ee="" transform="translate(160,157.63538285705) rotate(0,160.89599916003,142.36461714295) scale(1,1)" filter="" style="opacity: 1;"><g data-v-97fc22ee=""><rect fill="rgba(0,0,0,0)" width="341.79199832005" height="304.7292342859" x="-10" y="-10"></rect><svg version="1.1" id="图层_1" xmlns="http://www.w3.org/2000/svg" xmlns:xlink="http://www.w3.org/1999/xlink" x="0px" y="0px" width="321.79199832005" height="284.7292342859" viewBox="0 0 147.6 130.6" style="enable-background:new 0 0 147.6 130.6;" xml:space="preserve" class="style-removed" preserveAspectRatio="none" data-parent="shape_6xcWND893J">

<g>
	<g>
		<g>
			<polygon points="104.9,2.1 97.3,3.2 97.7,5.8 98,8.2 98.2,9.3 101.2,8.8 102.5,8.6 103.6,8.5 104.3,8.4 105.7,8.2 
				105.6,7.1 105.3,5.3 			" fill="#0A378C" stroke-width="0"></polygon>
			<polygon points="113.1,1 113.4,3.4 113.6,4.2 113.8,6 113.9,6.6 115.2,6.4 117,6.1 117.1,6.1 120.6,5.6 119.8,0 			
				" fill="#0A378C" stroke-width="0"></polygon>
			<polygon points="113.7,8.5 113.6,7.8 112.3,8 110.5,8.3 109.5,8.4 107.7,8.7 106.2,8.9 106.4,9.9 106.6,11.6 
				106.6,11.7 107,14 107.1,15 110.4,14.6 112.8,14.2 113.7,14.1 114.5,14 114,11 113.9,10.3 			" fill="#0A378C" stroke-width="0"></polygon>
			<polygon points="117.4,14.2 117.8,16.9 117.9,17.2 118.2,19.3 118.3,19.9 120.7,19.6 123.2,19.2 125,19 124.6,15.8 
				124.4,14.6 124.3,14 124.2,13.3 123.6,13.4 123.6,13.4 121.8,13.6 118.2,14.1 			" fill="#0A378C" stroke-width="0"></polygon>
			<polygon points="124.9,9.5 125.2,11.3 125.3,12 125.9,12 127.7,11.7 131.4,11.2 131.4,10.6 131,6.9 131.1,6.9 
				130.9,5.8 124.5,6.7 			" fill="#0A378C" stroke-width="0"></polygon>
			<polygon points="135.7,13.5 137.4,13.3 139.6,13.1 139.3,10.2 139.3,9.8 139,9.8 135.2,10.2 135,10.2 135.3,13.5 			
				" fill="#0A378C" stroke-width="0"></polygon>
			<polygon points="133.8,21 138.1,20.5 137.8,17.2 137.8,16.9 133.5,17.4 133.5,17.7 			" fill="#0A378C" stroke-width="0"></polygon>
			<polygon points="147.5,23.2 147.6,21.7 147.6,20.8 147.1,20.8 144.7,20.7 144.6,23.1 			" fill="#0A378C" stroke-width="0"></polygon>
			<path d="M58.3,92.7c-6.7-5.9-19.8-21.8,3.8-42.7c1.1-1,2.4-2,3.7-3.1c26.2-20.5,53-19.1,53-19.1l-0.3-4.3l-0.1-1.8
				l-0.7,0.1l-1,0.1l-1.8,0.2l-6.1,0.6l-0.4-4.2l-0.2-1.8l0-0.4l-2.7,0.3l-1.8,0.2l-4,0.4l-0.5-4.4L99,11l0-0.4l-2.4,0.3L94.7,11
				l-4.3,0.4l-0.8-7.5c-12,3.8-26.5,10.4-40.7,21.5c-1.7,1.3-3.3,2.7-4.8,4.1c-18.4,17.3-18.6,37.9-6.9,51.6
				c5.6,6.6,13.9,11.7,24.3,14C61.6,95.2,60.2,94.4,58.3,92.7z" fill="#0A378C" stroke-width="0"></path>
		</g>
	</g>
	<g>
		<polygon points="31.2,129.6 36.9,129.2 36.7,127.2 36.6,125.4 36.5,124.6 34.2,124.8 33.2,124.9 32.4,124.9 31.9,125 
			30.8,125.1 30.8,125.9 31,127.2 		" fill="#0BA6DD" stroke-width="0"></polygon>
		<polygon points="24.9,130.2 24.8,128.3 24.8,127.7 24.6,126.4 24.6,125.9 23.6,126 22.2,126.1 22.2,126.1 19.5,126.3 
			19.9,130.6 		" fill="#0BA6DD" stroke-width="0"></polygon>
		<polygon points="24.9,124.5 24.9,125 25.9,124.9 27.3,124.8 28,124.7 29.4,124.6 30.4,124.5 30.4,123.7 30.3,122.5 
			30.3,122.4 30.1,120.7 30.1,119.9 27.6,120.1 25.7,120.2 25.1,120.3 24.5,120.3 24.7,122.6 24.7,123.1 		" fill="#0BA6DD" stroke-width="0"></polygon>
		<polygon points="22.3,120 22.1,118 22.1,117.8 22,116.2 22,115.7 20.1,115.9 18.2,116 16.8,116.1 17,118.5 
			17.1,119.4 17.1,119.9 17.2,120.4 17.6,120.4 17.6,120.4 19,120.3 21.7,120 		" fill="#0BA6DD" stroke-width="0"></polygon>
		<polygon points="16.5,123.2 16.4,121.9 16.3,121.3 15.9,121.3 14.5,121.4 11.7,121.7 11.7,122.1 11.8,124.9 
			11.8,124.9 11.8,125.7 16.7,125.3 		" fill="#0BA6DD" stroke-width="0"></polygon>
		<polygon points="8.6,119.8 7.3,119.8 5.6,119.9 5.7,122.1 5.7,122.3 6,122.3 8.8,122.2 9,122.2 8.9,119.7 		" fill="#0BA6DD" stroke-width="0"></polygon>
		<polygon points="10.3,114.2 7.1,114.4 7.2,116.8 7.2,117.1 10.4,116.9 10.4,116.7 		" fill="#0BA6DD" stroke-width="0"></polygon>
		<polygon points="0.2,111.9 0.1,113 0,113.7 0.4,113.8 2.2,114 2.4,112.1 		" fill="#0BA6DD" stroke-width="0"></polygon>
		<path d="M70.1,63.9c4.8,4.7,13.8,17.2-4.8,31.8c-0.9,0.7-1.9,1.4-2.9,2.1c-20.5,14.2-40.6,11.9-40.6,11.9l0,3.3l0,1.4
			l0.5,0l0.8,0l1.4-0.1l4.6-0.2l0.1,3.2l0.1,1.4l0,0.3l2-0.1l1.4-0.1l3-0.1l0.1,3.3l0.1,1.4l0,0.3l1.8-0.1l1.4-0.1l3.3-0.1l0.2,5.7
			c9.1-2.3,20.3-6.6,31.4-14.3c1.3-0.9,2.6-1.9,3.8-2.9c14.5-12.1,15.6-27.5,7.5-38.4c-3.9-5.2-9.9-9.4-17.6-11.6
			C67.8,61.9,68.8,62.6,70.1,63.9z" fill="#0BA6DD" stroke-width="0"></path>
	</g>
</g>
</svg></g></g></g><g data-v-97fc22ee="" mask=""><g data-v-97fc22ee="" transform="translate(-76.04209382005996,-215.16336503854998) rotate(0,580.82745614075,510.32745614075) scale(1,1)" filter="" style="opacity: 1;"><g data-v-97fc22ee=""><svg xmlns="http://www.w3.org/2000/svg" version="1.1" xmlns:xlink="http://www.w3.org/1999/xlink" width="1161.6549122815" height="1020.6549122815" viewBox="0 0 1161.6549122815 1020.6549122815" data-ligature="true" data-parent="shape_lf6muEWnke"><g data-role="text" data-width="272.20959999999997" data-height="133" transform="translate(443.82745614075, 443.82745614075)"><path d="M6.66-0.44L13.46-48.67L118.35-48.67L111.55-0.44L6.66-0.44ZM40.24-105.19L36.54-99.71L75.89-99.71L73.67-84.62L54.15-84.62L53.70-81.66L73.53-81.66L71.60-67.76L61.84-67.76L71.16-51.78L45.86-51.78L39.65-62.28L30.77-51.63L3.70-51.63L19.38-67.76L4.14-67.76L6.07-81.66L30.33-81.66L30.77-84.62L26.48-84.62L26.04-83.88L6.07-83.88L18.64-103.11L14.79-105.19L40.24-105.19ZM72.05-52.22L79.00-101.34L132.26-101.34L125.31-52.22L72.05-52.22ZM37.58-35.95L36.69-30.03L90.98-30.03L91.87-35.95L37.58-35.95ZM34.32-13.31L88.62-13.31L89.36-18.64L35.06-18.64L34.32-13.31ZM96.31-65.98L106.52-65.98L109.33-86.84L99.12-86.84L96.31-65.98Z" transform="translate(0 118) " fill="#0a378c" stroke="#0a378c" stroke-width="0.247" data-glyph-w="136.10479999999998" data-glyph-h="192.32199999999997" data-glyph-ascender="147.94" data-glyph-descender="-44.382" data-kerning="0"></path><path d="M2.81-33.88L45.12-33.88L45.71-38.76L11.98-38.76L13.91-52.22L47.64-52.22L48.38-57.40L10.95-56.37L12.87-69.98L125.31-73.23L123.38-59.77L78.56-58.29L77.67-52.22L119.98-52.22L118.06-38.76L75.75-38.76L75.01-33.88L126.19-33.88L124.27-19.97L73.08-19.97L72.19-13.46L114.21-13.46L120.72-19.23L117.91 0.89L40.24 0.89L43.20-19.97L0.89-19.97L2.81-33.88ZM107.85-105.19L104.45-98.82L135.07-98.82L133.29-86.25L119.09-86.25L123.53-76.78L101.04-76.78L97.05-85.21L92.61-76.78L67.31-76.78L80.18-100.75L76.93-105.19L107.85-105.19ZM48.82-105.19L45.42-98.82L73.23-98.82L71.46-86.25L60.21-86.25L64.50-76.78L42.01-76.78L38.17-85.21L33.58-76.78L8.28-76.78L21.16-100.75L17.90-105.19L48.82-105.19Z" transform="translate(136.10479999999998 118) " fill="#0a378c" stroke="#0a378c" stroke-width="0.247" data-glyph-w="136.10479999999998" data-glyph-h="192.32199999999997" data-glyph-ascender="147.94" data-glyph-descender="-44.382" data-kerning="0"></path></g></svg></g></g></g><g data-v-97fc22ee="" mask=""><g data-v-97fc22ee="" transform="translate(214.190430727243,207.26544865379302) rotate(0,231.594931593447,184.094931593447) scale(1,1)" filter="" style="opacity: 1;"><g data-v-97fc22ee=""><svg xmlns="http://www.w3.org/2000/svg" version="1.1" xmlns:xlink="http://www.w3.org/1999/xlink" width="463.18986318689394" height="368.189863186894" viewBox="0 0 463.18986318689394 368.189863186894" data-ligature="true" data-parent="shape_Tpomq8kaU2"><g data-role="text" data-width="153.22500000000002" data-height="61" transform="translate(153.594931593447, 153.594931593447)"><path d="M19.88-34.98L2.45-34.98L2.45-41.60L28.60-41.60L28.60-35.20L10.25-12.53L29.55-12.53L29.55-5.90L1.50-5.90L1.50-12.28L19.88-34.98Z" transform="translate(0 46) " fill="#0a378c" stroke="#0a378c" stroke-width="0.085" data-glyph-w="31.05" data-glyph-h="53.35" data-glyph-ascender="42.900000000000006" data-glyph-descender="-10.450000000000001" data-kerning="0"></path><path d="M8.38-19.28L8.38-5.90L1.75-5.90L1.75-41.60L8.38-41.60L8.38-29.28Q10.83-30.75 13.88-30.75L13.88-30.75Q18.35-30.75 21.53-27.58L21.53-27.58Q24.70-24.40 24.70-19.93L24.70-19.93L24.70-5.90L18.07-5.90L18.07-19.28Q18.07-21.30 16.65-22.70L16.65-22.70Q15.25-24.13 13.23-24.13L13.23-24.13Q11.23-24.13 9.80-22.70L9.80-22.70Q8.38-21.30 8.38-19.28L8.38-19.28Z" transform="translate(31.05 46) " fill="#0a378c" stroke="#0a378c" stroke-width="0.085" data-glyph-w="26.450000000000003" data-glyph-h="53.35" data-glyph-ascender="42.900000000000006" data-glyph-descender="-10.450000000000001" data-kerning="0"></path><path d="M9.13-5.90L9.13-30.13L2.48-30.13L2.48-5.90L9.13-5.90ZM5.80-42.25Q7.38-42.25 8.50-41.13L8.50-41.13Q9.63-40 9.63-38.40L9.63-38.40Q9.63-36.83 8.50-35.70L8.50-35.70Q7.38-34.58 5.80-34.58L5.80-34.58Q4.23-34.58 3.10-35.70L3.10-35.70Q1.98-36.83 1.98-38.40L1.98-38.40Q1.98-40 3.10-41.13L3.10-41.13Q4.23-42.25 5.80-42.25L5.80-42.25Z" transform="translate(57.5 46) " fill="#0a378c" stroke="#0a378c" stroke-width="0.085" data-glyph-w="11.625" data-glyph-h="53.35" data-glyph-ascender="42.900000000000006" data-glyph-descender="-10.450000000000001" data-kerning="0"></path><path d="M9.13-18.65L17.18-18.65Q21.93-18.65 25.28-22L25.28-22Q28.65-25.38 28.65-30.13L28.65-30.13Q28.65-34.88 25.28-38.25L25.28-38.25Q21.93-41.60 17.18-41.60L17.18-41.60L2.50-41.60L2.50-5.90L9.13-5.90L9.13-18.65ZM9.13-34.98L17.18-34.98Q19.18-34.98 20.60-33.55L20.60-33.55Q22.03-32.13 22.03-30.13L22.03-30.13Q22.03-28.13 20.60-26.70L20.60-26.70Q19.18-25.28 17.18-25.28L17.18-25.28L9.13-25.28L9.13-34.98Z" transform="translate(69.125 46) " fill="#0a378c" stroke="#0a378c" stroke-width="0.085" data-glyph-w="30.150000000000002" data-glyph-h="53.35" data-glyph-ascender="42.900000000000006" data-glyph-descender="-10.450000000000001" data-kerning="0"></path><path d="M23.95-14.70L8.58-14.70Q8.95-14.15 9.43-13.68L9.43-13.68Q11.23-11.88 13.75-11.88L13.75-11.88Q16.57-11.88 18.43-14.03L18.43-14.03L24.20-10.70Q20.40-5.25 13.75-5.25L13.75-5.25Q8.47-5.25 4.75-9L4.75-9Q1-12.73 1-18L1-18Q1-23.30 4.75-27.03L4.75-27.03Q8.47-30.75 13.75-30.75L13.75-30.75Q19.05-30.75 22.78-27.03L22.78-27.03Q26.50-23.30 26.50-18L26.50-18Q26.50-16.28 26.05-14.63L26.05-14.63L23.95-14.70ZM8.60-21.33L8.60-21.33L18.90-21.33Q18.55-21.85 18.07-22.33L18.07-22.33Q16.30-24.13 13.75-24.13L13.75-24.13Q11.23-24.13 9.43-22.33L9.43-22.33Q8.95-21.85 8.60-21.33Z" transform="translate(99.275 46) " fill="#0a378c" stroke="#0a378c" stroke-width="0.085" data-glyph-w="27.5" data-glyph-h="53.35" data-glyph-ascender="42.900000000000006" data-glyph-descender="-10.450000000000001" data-kerning="0"></path><path d="M8.38-19.28L8.38-5.90L1.75-5.90L1.75-30.13L8.38-30.13L8.38-29.03Q10.90-30.75 14.13-30.75L14.13-30.75Q18.50-30.75 21.60-27.58L21.60-27.58Q24.70-24.40 24.70-19.93L24.70-19.93L24.70-5.90L18.07-5.90L18.07-19.28Q18.07-21.30 16.65-22.70L16.65-22.70Q15.25-24.13 13.23-24.13L13.23-24.13Q11.23-24.13 9.80-22.70L9.80-22.70Q8.38-21.30 8.38-19.28L8.38-19.28Z" transform="translate(126.775 46) " fill="#0a378c" stroke="#0a378c" stroke-width="0.085" data-glyph-w="26.450000000000003" data-glyph-h="53.35" data-glyph-ascender="42.900000000000006" data-glyph-descender="-10.450000000000001" data-kerning="0"></path></g></svg></g></g></g></svg>