<svg data-v-97fc22ee="" data-noselect="" viewBox="0 0 800 600" width="800" height="600" preserveAspectRatio="none" version="1.1" xmlns="http://www.w3.org/2000/svg" xmlns:xlink="http://www.w3.org/1999/xlink" class="svg-canvas" style=""><defs data-v-97fc22ee=""></defs> <g data-v-97fc22ee="" mask=""><g data-v-97fc22ee="" transform="translate(196.56967840735,120) rotate(0,203.43032159265,180) scale(1,1)" filter="" style="opacity: 1;"><g data-v-97fc22ee=""><rect fill="rgba(0,0,0,0)" width="426.8606431853" height="380" x="-10" y="-10"></rect><svg version="1.1" id="图层_1" xmlns="http://www.w3.org/2000/svg" xmlns:xlink="http://www.w3.org/1999/xlink" x="0px" y="0px" width="406.8606431853" height="360" viewBox="0 0 147.6 130.6" style="enable-background:new 0 0 147.6 130.6;" xml:space="preserve" class="style-removed" preserveAspectRatio="none" data-parent="shape_6xcWND893J">

<g>
	<g>
		<g>
			<polygon points="104.9,2.1 97.3,3.2 97.7,5.8 98,8.2 98.2,9.3 101.2,8.8 102.5,8.6 103.6,8.5 104.3,8.4 105.7,8.2 
				105.6,7.1 105.3,5.3 			" fill="#0A378C" stroke-width="0"></polygon>
			<polygon points="113.1,1 113.4,3.4 113.6,4.2 113.8,6 113.9,6.6 115.2,6.4 117,6.1 117.1,6.1 120.6,5.6 119.8,0 			
				" fill="#0A378C" stroke-width="0"></polygon>
			<polygon points="113.7,8.5 113.6,7.8 112.3,8 110.5,8.3 109.5,8.4 107.7,8.7 106.2,8.9 106.4,9.9 106.6,11.6 
				106.6,11.7 107,14 107.1,15 110.4,14.6 112.8,14.2 113.7,14.1 114.5,14 114,11 113.9,10.3 			" fill="#0A378C" stroke-width="0"></polygon>
			<polygon points="117.4,14.2 117.8,16.9 117.9,17.2 118.2,19.3 118.3,19.9 120.7,19.6 123.2,19.2 125,19 124.6,15.8 
				124.4,14.6 124.3,14 124.2,13.3 123.6,13.4 123.6,13.4 121.8,13.6 118.2,14.1 			" fill="#0A378C" stroke-width="0"></polygon>
			<polygon points="124.9,9.5 125.2,11.3 125.3,12 125.9,12 127.7,11.7 131.4,11.2 131.4,10.6 131,6.9 131.1,6.9 
				130.9,5.8 124.5,6.7 			" fill="#0A378C" stroke-width="0"></polygon>
			<polygon points="135.7,13.5 137.4,13.3 139.6,13.1 139.3,10.2 139.3,9.8 139,9.8 135.2,10.2 135,10.2 135.3,13.5 			
				" fill="#0A378C" stroke-width="0"></polygon>
			<polygon points="133.8,21 138.1,20.5 137.8,17.2 137.8,16.9 133.5,17.4 133.5,17.7 			" fill="#0A378C" stroke-width="0"></polygon>
			<polygon points="147.5,23.2 147.6,21.7 147.6,20.8 147.1,20.8 144.7,20.7 144.6,23.1 			" fill="#0A378C" stroke-width="0"></polygon>
			<path d="M58.3,92.7c-6.7-5.9-19.8-21.8,3.8-42.7c1.1-1,2.4-2,3.7-3.1c26.2-20.5,53-19.1,53-19.1l-0.3-4.3l-0.1-1.8
				l-0.7,0.1l-1,0.1l-1.8,0.2l-6.1,0.6l-0.4-4.2l-0.2-1.8l0-0.4l-2.7,0.3l-1.8,0.2l-4,0.4l-0.5-4.4L99,11l0-0.4l-2.4,0.3L94.7,11
				l-4.3,0.4l-0.8-7.5c-12,3.8-26.5,10.4-40.7,21.5c-1.7,1.3-3.3,2.7-4.8,4.1c-18.4,17.3-18.6,37.9-6.9,51.6
				c5.6,6.6,13.9,11.7,24.3,14C61.6,95.2,60.2,94.4,58.3,92.7z" fill="#0A378C" stroke-width="0"></path>
		</g>
	</g>
	<g>
		<polygon points="31.2,129.6 36.9,129.2 36.7,127.2 36.6,125.4 36.5,124.6 34.2,124.8 33.2,124.9 32.4,124.9 31.9,125 
			30.8,125.1 30.8,125.9 31,127.2 		" fill="#0BA6DD" stroke-width="0"></polygon>
		<polygon points="24.9,130.2 24.8,128.3 24.8,127.7 24.6,126.4 24.6,125.9 23.6,126 22.2,126.1 22.2,126.1 19.5,126.3 
			19.9,130.6 		" fill="#0BA6DD" stroke-width="0"></polygon>
		<polygon points="24.9,124.5 24.9,125 25.9,124.9 27.3,124.8 28,124.7 29.4,124.6 30.4,124.5 30.4,123.7 30.3,122.5 
			30.3,122.4 30.1,120.7 30.1,119.9 27.6,120.1 25.7,120.2 25.1,120.3 24.5,120.3 24.7,122.6 24.7,123.1 		" fill="#0BA6DD" stroke-width="0"></polygon>
		<polygon points="22.3,120 22.1,118 22.1,117.8 22,116.2 22,115.7 20.1,115.9 18.2,116 16.8,116.1 17,118.5 
			17.1,119.4 17.1,119.9 17.2,120.4 17.6,120.4 17.6,120.4 19,120.3 21.7,120 		" fill="#0BA6DD" stroke-width="0"></polygon>
		<polygon points="16.5,123.2 16.4,121.9 16.3,121.3 15.9,121.3 14.5,121.4 11.7,121.7 11.7,122.1 11.8,124.9 
			11.8,124.9 11.8,125.7 16.7,125.3 		" fill="#0BA6DD" stroke-width="0"></polygon>
		<polygon points="8.6,119.8 7.3,119.8 5.6,119.9 5.7,122.1 5.7,122.3 6,122.3 8.8,122.2 9,122.2 8.9,119.7 		" fill="#0BA6DD" stroke-width="0"></polygon>
		<polygon points="10.3,114.2 7.1,114.4 7.2,116.8 7.2,117.1 10.4,116.9 10.4,116.7 		" fill="#0BA6DD" stroke-width="0"></polygon>
		<polygon points="0.2,111.9 0.1,113 0,113.7 0.4,113.8 2.2,114 2.4,112.1 		" fill="#0BA6DD" stroke-width="0"></polygon>
		<path d="M70.1,63.9c4.8,4.7,13.8,17.2-4.8,31.8c-0.9,0.7-1.9,1.4-2.9,2.1c-20.5,14.2-40.6,11.9-40.6,11.9l0,3.3l0,1.4
			l0.5,0l0.8,0l1.4-0.1l4.6-0.2l0.1,3.2l0.1,1.4l0,0.3l2-0.1l1.4-0.1l3-0.1l0.1,3.3l0.1,1.4l0,0.3l1.8-0.1l1.4-0.1l3.3-0.1l0.2,5.7
			c9.1-2.3,20.3-6.6,31.4-14.3c1.3-0.9,2.6-1.9,3.8-2.9c14.5-12.1,15.6-27.5,7.5-38.4c-3.9-5.2-9.9-9.4-17.6-11.6
			C67.8,61.9,68.8,62.6,70.1,63.9z" fill="#0BA6DD" stroke-width="0"></path>
	</g>
</g>
</svg></g></g></g></svg>